REM MD5 22bc7695ffdfa5438b46f8e6043d332f
FILE "SuperLite 1500 Series - Oekaki Puzzle 2 (Japan).bin" BINARY
  TRACK 01 MODE2/2352
    INDEX 01 00:00:00
  TRACK 02 AUDIO
    INDEX 00 00:08:42
    INDEX 01 00:10:42
  TRACK 03 AUDIO
    INDEX 00 02:20:73
    INDEX 01 02:22:73
  TRACK 04 AUDIO
    INDEX 00 05:29:03
    INDEX 01 05:31:03
  TRACK 05 AUDIO
    INDEX 00 13:37:55
    INDEX 01 13:39:55
  TRACK 06 AUDIO
    INDEX 00 21:46:32
    INDEX 01 21:48:32
REM LEADOUT 29:56:70
